<svg viewBox="0 0 24 24" fill="none" xmlns="http://www.w3.org/2000/svg"><path fill-rule="evenodd" clip-rule="evenodd" d="M21.995 5.824A3 3 0 0 0 19 3H5l-.176.005A3 3 0 0 0 2 6v12l.005.176A3 3 0 0 0 5 21h14l.176-.005A3 3 0 0 0 22 18V6l-.005-.176ZM5 5h14l.117.007A1 1 0 0 1 20 6v12l-.007.117A1 1 0 0 1 19 19H5l-.117-.007A1 1 0 0 1 4 18V6l.007-.117A1 1 0 0 1 5 5Zm12 7a1 1 0 0 1 .993.883L18 13v3a1 1 0 0 1-.883.993L17 17h-3a1 1 0 0 1-.117-1.993L14 15h2v-2a1 1 0 0 1 .883-.993L17 12Zm-6-4a1 1 0 0 0-1-1H7l-.117.007A1 1 0 0 0 6 8v3l.007.117A1 1 0 0 0 7 12l.117-.007A1 1 0 0 0 8 11V9h2l.117-.007A1 1 0 0 0 11 8Z" fill="#FFDA93"/></svg>