<svg viewBox="0 0 24 24" fill="none" xmlns="http://www.w3.org/2000/svg"><path fill-rule="evenodd" clip-rule="evenodd" d="M12.121 1.38c.459-.699 1.531-.37 1.531.47v7.365l4.296-.572c.722-.096 1.211.725.792 1.329l-8.101 11.667c-.47.676-1.518.34-1.518-.488v-7.264l-4.176 1.112c-.743.197-1.333-.641-.908-1.29l8.085-12.33Zm.057 2.614-5.983 9.125 2.86-.761c.778-.208 1.54.388 1.54 1.205v5.542l6.1-8.786-3.129.416A1.235 1.235 0 0 1 12.178 9.5V3.994Z" fill="#FFDA93" stroke="#FFDA93" stroke-width=".2" stroke-linecap="round"/></svg>