<svg viewBox="0 0 24 24" fill="none" xmlns="http://www.w3.org/2000/svg"><path d="m21.924 9.105.506.863-.506-.863-3.304 1.936a.126.126 0 0 1-.13 0l-3.303-1.936a.161.161 0 0 1-.076-.14V5.093a.16.16 0 0 1 .076-.14l3.304-1.935a.126.126 0 0 1 .13 0l3.303 1.936a.16.16 0 0 1 .076.14v3.871a.161.161 0 0 1-.076.14ZM5.38 3.018a.126.126 0 0 1 .13 0l3.303 1.936a.16.16 0 0 1 .076.14v3.871a.16.16 0 0 1-.076.14L5.51 11.041a.126.126 0 0 1-.13 0L2.077 9.105A.16.16 0 0 1 2 8.965V5.093a.16.16 0 0 1 .076-.14L5.38 3.019Zm6.555 9.941a.126.126 0 0 1 .13 0l3.304 1.936a.161.161 0 0 1 .075.14v3.872a.161.161 0 0 1-.075.14l-3.304 1.935a.126.126 0 0 1-.13 0l-3.304-1.936a.161.161 0 0 1-.075-.14v-3.871c0-.064.033-.115.075-.14l3.304-1.936Z" stroke="#FFDA93" stroke-width="2"/></svg>