<svg viewBox="0 0 24 24" fill="none" xmlns="http://www.w3.org/2000/svg"><path fill-rule="evenodd" clip-rule="evenodd" d="M12 3c-2.095 0-4.02.336-5.445.903-.71.283-1.328.635-1.778 1.058C4.325 5.386 4 5.925 4 6.558V17.43l.022.012H4c0 .633.325 1.172.777 1.597.45.423 1.067.775 1.778 1.058C7.98 20.663 9.905 21 12 21s4.02-.337 5.445-.903c.71-.283 1.328-.635 1.778-1.058.452-.425.777-.964.777-1.597h-.022L20 17.43V6.558c0-.633-.325-1.172-.777-1.597-.45-.423-1.067-.775-1.778-1.058C16.02 3.336 14.095 3 12 3ZM5.263 6.558c0-.176.087-.408.382-.684.295-.278.757-.557 1.38-.805 1.241-.494 3-.813 4.975-.813 1.975 0 3.734.32 4.976.813.622.248 1.084.527 1.38.805.294.276.38.508.38.684 0 .176-.086.408-.38.685-.296.277-.758.557-1.38.804-1.242.494-3.001.813-4.976.813s-3.734-.319-4.976-.813c-.622-.247-1.084-.527-1.38-.804-.294-.277-.38-.509-.38-.685ZM18.737 12V8.543a6.617 6.617 0 0 1-1.292.67c-1.425.567-3.35.903-5.445.903s-4.02-.336-5.445-.903a6.618 6.618 0 0 1-1.292-.67V12c0 .176.087.408.382.684.295.278.757.557 1.38.805 1.241.494 3 .813 4.975.813 1.975 0 3.734-.32 4.976-.813.622-.248 1.084-.527 1.38-.805.294-.276.38-.508.38-.684ZM5.263 13.985c.373.256.811.479 1.292.67 1.425.567 3.35.903 5.445.903s4.02-.336 5.445-.903c.48-.191.92-.414 1.292-.67v3.446l.01.01h-.01c0 .177-.087.409-.382.685-.295.278-.757.557-1.38.805-1.241.494-3 .813-4.975.813-1.975 0-3.734-.32-4.976-.813-.622-.248-1.084-.527-1.38-.805-.294-.276-.38-.508-.38-.684h-.012l.011-.011v-3.446Z" fill="#FFDA93" stroke="#FFDA93" stroke-width=".5"/></svg>