<svg fill="none" xmlns="http://www.w3.org/2000/svg" viewBox="0 0 36 30" class="rating-quotes"><path fill-rule="evenodd" clip-rule="evenodd" d="M1.316 14.9 8.62 0h6.95l-2.824 6.41-.22.625c-.247.841-.45 1.941-.065 2.51.342.505.87.87 1.311 1.108 3.821 1.436 6.536 5.08 6.536 9.347 0 5.523-4.546 10-10.154 10S0 25.523 0 20c0-1.621.392-3.152 1.087-4.506.057-.2.133-.398.23-.594Zm23.73 4.903c0 3.54-1.32 6.776-3.501 9.258 1.306.602 2.764.94 4.301.94C31.454 30 36 25.522 36 20c0-4.16-2.579-7.727-6.248-9.234a3.64 3.64 0 0 1-1.198-1.1c-.602-.89-.132-2.837-.022-3.254L31.261 0h-6.95l-4.37 8.986c3.123 2.596 5.105 6.478 5.105 10.817Z" fill="url(#quotes_svg__a)"/><defs><linearGradient id="quotes_svg__a" x1=".9" y1="3.375" x2="37.978" y2="9.266" gradientUnits="userSpaceOnUse"><stop stop-color="#E7A28F"/><stop offset=".411" stop-color="#F9D6AC"/><stop offset="1" stop-color="#FBFEFC"/></linearGradient></defs></svg>