<svg viewBox="0 0 24 24" fill="none" xmlns="http://www.w3.org/2000/svg"><path d="M2 11.998c0 1.339 1.66 2.608 4.203 3.395-.587 2.62-.326 4.705.824 5.372.264.157.574.23.913.23v-.918a.935.935 0 0 1-.465-.107c-.554-.321-.795-1.545-.607-3.119.044-.387.118-.795.207-1.211.8.198 1.672.35 2.59.449.55.762 1.12 1.454 1.695 2.06-1.329 1.248-2.576 1.932-3.424 1.932V21c1.12 0 2.588-.808 4.072-2.208 1.484 1.392 2.952 2.191 4.073 2.191v-.918c-.844 0-2.096-.68-3.425-1.92a19.404 19.404 0 0 0 1.684-2.056 18.839 18.839 0 0 0 2.593-.453c.093.412.163.812.212 1.195.191 1.573-.045 2.797-.596 3.122a.9.9 0 0 1-.468.108v.918c.342 0 .652-.074.921-.23 1.146-.668 1.402-2.748.811-5.36C20.35 14.598 22 13.333 22 11.998c0-1.339-1.66-2.608-4.203-3.395.587-2.62.326-4.705-.823-5.372A1.777 1.777 0 0 0 16.056 3c-1.12 0-2.588.808-4.072 2.208C10.5 3.816 9.032 3.016 7.91 3.016c-.342 0-.652.075-.921.231-1.146.668-1.403 2.748-.811 5.36C3.65 9.394 2 10.663 2 11.997Zm5.308 2.748c.15-.532.338-1.08.55-1.627a22.324 22.324 0 0 0 1.121 1.953 18.195 18.195 0 0 1-1.671-.326Zm1.867-4.388c.318-.556.644-1.083.982-1.574a20.988 20.988 0 0 1 3.678-.004 21.554 21.554 0 0 1 1.835 3.205 21.984 21.984 0 0 1-1.826 3.218 21.013 21.013 0 0 1-3.678.004 21.555 21.555 0 0 1-1.834-3.205 23.15 23.15 0 0 1 .843-1.644Zm-1.317.536a17.788 17.788 0 0 1-.562-1.64 18.128 18.128 0 0 1 1.68-.33 22.818 22.818 0 0 0-1.118 1.97Zm4.134-4.396c.379.395.758.836 1.133 1.318a24.973 24.973 0 0 0-1.12-.029c-.384 0-.763.009-1.134.03.367-.483.746-.924 1.12-1.32Zm3.033 2.426c.579.087 1.137.194 1.671.326-.15.531-.338 1.08-.55 1.627-.167-.33-.343-.659-.534-.988-.192-.33-.387-.651-.587-.965Zm-3.013 8.574c-.379-.396-.758-.836-1.133-1.318.367.016.742.029 1.121.029.383 0 .762-.009 1.133-.03-.367.483-.746.924-1.12 1.32Zm3.017-2.427a22.723 22.723 0 0 0 1.117-1.965c.22.552.408 1.104.563 1.64-.535.128-1.097.239-1.68.325Zm3.69-5.158c1.442.622 2.376 1.438 2.376 2.085s-.934 1.467-2.377 2.085c-.35.152-.733.288-1.129.416a19.918 19.918 0 0 0-.917-2.51c.375-.856.677-1.693.905-2.496.403.128.787.268 1.141.42Zm-2.194-5.887c.555.321.795 1.545.608 3.119a12.82 12.82 0 0 1-.208 1.21 19.564 19.564 0 0 0-2.59-.448 20.045 20.045 0 0 0-1.695-2.06c1.329-1.248 2.576-1.932 3.424-1.932a.965.965 0 0 1 .461.11Zm-9.67 3.14c-.191-1.575.045-2.798.595-3.124a.9.9 0 0 1 .47-.107c.843 0 2.095.68 3.424 1.92A19.406 19.406 0 0 0 9.66 7.911c-.921.099-1.794.251-2.593.453a11.644 11.644 0 0 1-.212-1.199Zm-1.57 2.747c.351-.152.735-.288 1.13-.416.232.808.538 1.648.917 2.51a19.638 19.638 0 0 0-.905 2.496 12.847 12.847 0 0 1-1.145-.42c-1.443-.623-2.377-1.438-2.377-2.085.004-.647.938-1.467 2.38-2.085Z" fill="#FFDA93" stroke="#FFDA93" stroke-width=".7"/><path d="M10.637 11.998c0-.768.615-1.383 1.363-1.383s1.363.614 1.363 1.383-.615 1.383-1.363 1.383a1.373 1.373 0 0 1-1.363-1.383Z" fill="#FFDA93" stroke="#FFDA93"/></svg>