<svg viewBox="0 0 24 24" fill="none" xmlns="http://www.w3.org/2000/svg"><path fill-rule="evenodd" clip-rule="evenodd" d="M18.113 7.405 12 3.908 5.889 7.404 12 10.9l6.112-3.495ZM4.927 9.055v6.992l6.111 3.495v-6.99l-6.11-3.496Zm8.037 10.486 6.109-3.494V9.058l-6.109 3.495v6.988ZM11.037 2.256a1.94 1.94 0 0 1 1.926 0L20.037 6.3c.293.167.536.408.705.699.17.29.258.62.258.954v8.093c0 .335-.089.664-.258.954-.169.29-.412.53-.705.698l-7.074 4.045a1.939 1.939 0 0 1-1.926 0L3.963 17.7A1.916 1.916 0 0 1 3.258 17 1.894 1.894 0 0 1 3 16.046v-8.09c0-.336.089-.665.258-.955.169-.29.412-.532.705-.7l7.075-4.044v-.001Z" fill="#FFDA93"/></svg>